<?xml version="1.0" encoding="UTF-8" standalone="no"?>
<svg
   viewBox="0 0 85.696518 90.266997"
   fill="none"
   version="1.1"
   id="svg3"
   sodipodi:docname="logo-mastodon.svg"
   inkscape:version="1.4.2 (ebf0e940d0, 2025-05-08)"
   xmlns:inkscape="http://www.inkscape.org/namespaces/inkscape"
   xmlns:sodipodi="http://sodipodi.sourceforge.net/DTD/sodipodi-0.dtd"
   xmlns="http://www.w3.org/2000/svg"
   xmlns:svg="http://www.w3.org/2000/svg">
  <sodipodi:namedview
     id="namedview3"
     pagecolor="#ffffff"
     bordercolor="#000000"
     borderopacity="0.25"
     inkscape:showpageshadow="2"
     inkscape:pageopacity="0.0"
     inkscape:pagecheckerboard="0"
     inkscape:deskcolor="#d1d1d1"
     inkscape:zoom="6.1994758"
     inkscape:cx="45.003805"
     inkscape:cy="50.004227"
     inkscape:window-width="1536"
     inkscape:window-height="888"
     inkscape:window-x="0"
     inkscape:window-y="0"
     inkscape:window-maximized="1"
     inkscape:current-layer="svg3" />
  <path
     d="M 61.2484,27.0263 V 48.114 H 52.8916 V 27.6475 c 0,-4.3087 -1.7956,-6.5062 -5.4479,-6.5062 -4.015,0 -6.026,2.5996 -6.026,7.7342 V 40.0782 H 33.1111 V 28.8755 c 0,-5.1346 -2.0146,-7.7342 -6.0296,-7.7342 -3.6308,0 -5.4444,2.1975 -5.4444,6.5062 V 48.114 H 13.2839 V 27.0263 c 0,-4.3087 1.1001,-7.7317 3.3004,-10.2691 2.2696,-2.5314 5.2468,-3.8312 8.9421,-3.8312 4.2772,0 7.5093,1.6445 9.6641,4.9299 l 2.0793,3.4901 2.0829,-3.4901 c 2.1547,-3.2854 5.3868,-4.9299 9.6568,-4.9299 3.6918,0 6.6689,1.2998 8.9458,3.8312 2.1978,2.535 3.2955,5.958 3.2931,10.2691 z"
     fill="#ffffff"
     id="path2" />
  <defs
     id="defs3">
    <linearGradient
       id="paint0_linear_549_34"
       x1="37.069199"
       y1="0"
       x2="37.069199"
       y2="79"
       gradientUnits="userSpaceOnUse">
      <stop
         stop-color="#6364FF"
         id="stop2" />
      <stop
         offset="1"
         stop-color="#563ACC"
         id="stop3" />
    </linearGradient>
  </defs>
  <path
     style="stroke-width:0.125397"
     d="M 35.938137,84.868059 C 32.215178,84.576952 27.806515,83.629052 24.496032,82.407907 19.385586,80.522807 14.266377,76.519332 11.429004,72.188845 9.978222,69.974618 9.314617,68.297312 8.584512,64.999206 7.064716,58.133828 6.665623,53.760774 6.177062,38.619677 5.9131344,30.440238 6.094144,26.79758 6.9563,22.938197 8.368039,16.618648 12.844353,11.479682 19.362267,8.6957125 22.557194,7.3310768 26.576843,6.5968693 32.834921,6.2348706 c 3.243775,-0.1876363 16.158112,-0.1851781 19.938095,0.0038 5.700622,0.2849921 9.35139,0.6634461 11.627799,1.2053866 6.754549,1.6080425 12.401539,6.5085368 14.564845,12.6394648 1.188024,3.366922 1.311422,6.60363 0.894897,23.472832 -0.120879,4.895568 -0.255797,6.277843 -0.826168,8.464286 -1.203815,4.614663 -3.536543,7.966312 -7.262763,10.435092 -4.440943,2.942315 -10.410653,4.157962 -22.697816,4.622087 -7.22847,0.273043 -12.651911,-0.113609 -18.388191,-1.310945 -1.098383,-0.229265 -2.025309,-0.371138 -2.059837,-0.315271 -0.102735,0.16623 0.302917,2.471481 0.64857,3.685704 1.013991,3.562 3.510474,5.711125 7.746982,6.669077 3.103468,0.70175 9.205907,0.564006 15.014558,-0.338909 1.476336,-0.229486 4.335619,-0.78488 4.906568,-0.953062 0.204861,-0.06035 0.219445,0.143392 0.219445,3.065657 v 3.130299 l -0.595635,0.381258 c -2.332975,1.493308 -8.00036,3.101955 -12.884524,3.657182 -1.633227,0.185664 -6.028613,0.253354 -7.743609,0.119255 z M 27.695828,43.211508 c 0.0024,-12.004479 -0.0015,-11.935004 0.75323,-13.471985 0.473197,-0.963657 1.388336,-1.811127 2.35423,-2.18015 1.469597,-0.561464 3.766325,-0.445499 5.237509,0.264448 1.209633,0.583731 2.224319,2.044428 2.705924,3.895329 0.261405,1.004626 0.276386,1.36034 0.325642,7.732132 l 0.05163,6.679059 4.159828,-0.03303 4.159829,-0.03303 0.07139,-6.896826 c 0.06318,-6.104108 0.09697,-6.983304 0.293956,-7.649206 0.908572,-3.071366 2.90639,-4.478551 6.092593,-4.291388 2.534333,0.148872 3.977057,1.322445 4.661793,3.792102 0.274945,0.991652 0.277933,1.102838 0.324275,12.067143 l 0.04677,11.06627 h 4.19231 4.19231 V 43.358484 c 0,-6.846174 -0.05048,-11.352135 -0.138025,-12.320238 -0.470431,-5.202289 -2.829178,-9.053683 -6.696102,-10.933492 -1.669141,-0.811411 -2.798972,-1.074287 -4.953175,-1.152447 -3.560183,-0.129174 -6.202766,0.742728 -8.356048,2.757017 -1.088516,1.018253 -1.688811,1.820222 -2.860298,3.821232 -0.535001,0.913829 -1.009293,1.658858 -1.053984,1.655619 -0.04469,-0.0032 -0.5609,-0.825397 -1.14713,-1.827021 -0.58623,-1.001622 -1.338593,-2.15838 -1.671916,-2.570573 -1.305996,-1.615013 -3.429923,-2.960729 -5.538402,-3.50912 -1.417721,-0.368733 -4.12466,-0.459904 -5.667307,-0.190876 -4.981423,0.868725 -8.326743,4.279674 -9.607844,9.796336 -0.254496,1.095904 -0.263299,1.477922 -0.304147,13.198016 l -0.04206,12.069444 h 4.205523 4.205523 z"
     id="path3" />
</svg>
